<?xml version="1.0" encoding="UTF-8" standalone="no"?>
<svg
   version="1.0"
   width="135.46667mm"
   height="135.46667mm"
   id="svg30"
   sodipodi:docname="website_logo_actual.svg"
   inkscape:version="1.3.2 (1:1.3.2+202404261509+091e20ef0f)"
   inkscape:export-filename="website_logo_32x32.png"
   inkscape:export-xdpi="6"
   inkscape:export-ydpi="6"
   xmlns:inkscape="http://www.inkscape.org/namespaces/inkscape"
   xmlns:sodipodi="http://sodipodi.sourceforge.net/DTD/sodipodi-0.dtd"
   xmlns:xlink="http://www.w3.org/1999/xlink"
   xmlns="http://www.w3.org/2000/svg"
   xmlns:svg="http://www.w3.org/2000/svg">
  <sodipodi:namedview
     id="namedview30"
     pagecolor="#ffffff"
     bordercolor="#000000"
     borderopacity="0.25"
     inkscape:showpageshadow="2"
     inkscape:pageopacity="0.0"
     inkscape:pagecheckerboard="0"
     inkscape:deskcolor="#d1d1d1"
     inkscape:document-units="mm"
     showgrid="false"
     inkscape:zoom="1.2637677"
     inkscape:cx="246.88081"
     inkscape:cy="314.93129"
     inkscape:window-width="1920"
     inkscape:window-height="1011"
     inkscape:window-x="0"
     inkscape:window-y="0"
     inkscape:window-maximized="1"
     inkscape:current-layer="svg30" />
  <defs
     id="defs1">
    <linearGradient
       id="linearGradient32"
       inkscape:collect="always">
      <stop
         style="stop-color:#24f2cc;stop-opacity:1;"
         offset="0"
         id="stop31" />
      <stop
         style="stop-color:#9d27b2;stop-opacity:1;"
         offset="1"
         id="stop32" />
    </linearGradient>
    <linearGradient
       id="linearGradient1"
       inkscape:collect="always">
      <stop
         style="stop-color:#1213e5;stop-opacity:1;"
         offset="0"
         id="stop1" />
      <stop
         style="stop-color:#41bde8;stop-opacity:1;"
         offset="1"
         id="stop2" />
    </linearGradient>
    <pattern
       id="WMFhbasepattern"
       patternUnits="userSpaceOnUse"
       width="6"
       height="6"
       x="0"
       y="0" />
    <linearGradient
       inkscape:collect="always"
       xlink:href="#linearGradient1"
       id="linearGradient2"
       x1="36.315559"
       y1="534.6026"
       x2="387.53049"
       y2="257.96973"
       gradientUnits="userSpaceOnUse" />
    <linearGradient
       inkscape:collect="always"
       xlink:href="#linearGradient32"
       id="linearGradient31"
       x1="79.920113"
       y1="386.32001"
       x2="364.25772"
       y2="-24.933809"
       gradientUnits="userSpaceOnUse" />
    <clipPath
       clipPathUnits="userSpaceOnUse"
       id="clipPath32">
      <rect
         style="fill:#000000"
         id="rect33"
         width="512"
         height="512"
         x="0"
         y="0" />
    </clipPath>
    <clipPath
       clipPathUnits="userSpaceOnUse"
       id="clipPath33">
      <rect
         style="fill:#000000"
         id="rect34"
         width="512"
         height="512"
         x="0"
         y="0" />
    </clipPath>
    <clipPath
       clipPathUnits="userSpaceOnUse"
       id="clipPath34">
      <rect
         style="fill:#000000"
         id="rect35"
         width="512"
         height="512"
         x="0"
         y="0" />
    </clipPath>
    <clipPath
       clipPathUnits="userSpaceOnUse"
       id="clipPath35">
      <rect
         style="fill:#000000"
         id="rect36"
         width="512"
         height="512"
         x="0"
         y="0" />
    </clipPath>
    <clipPath
       clipPathUnits="userSpaceOnUse"
       id="clipPath36">
      <rect
         style="fill:#000000"
         id="rect37"
         width="512"
         height="512"
         x="0"
         y="0" />
    </clipPath>
    <clipPath
       clipPathUnits="userSpaceOnUse"
       id="clipPath37">
      <rect
         style="fill:#000000"
         id="rect38"
         width="512"
         height="512"
         x="0"
         y="0" />
    </clipPath>
    <clipPath
       clipPathUnits="userSpaceOnUse"
       id="clipPath38">
      <rect
         style="fill:#000000"
         id="rect39"
         width="512"
         height="512"
         x="0"
         y="0" />
    </clipPath>
    <clipPath
       clipPathUnits="userSpaceOnUse"
       id="clipPath39">
      <rect
         style="fill:#000000"
         id="rect40"
         width="512"
         height="512"
         x="0"
         y="0" />
    </clipPath>
    <clipPath
       clipPathUnits="userSpaceOnUse"
       id="clipPath40">
      <rect
         style="fill:#000000"
         id="rect41"
         width="512"
         height="512"
         x="0"
         y="0" />
    </clipPath>
    <clipPath
       clipPathUnits="userSpaceOnUse"
       id="clipPath41">
      <rect
         style="fill:#000000"
         id="rect42"
         width="512"
         height="512"
         x="0"
         y="0" />
    </clipPath>
    <clipPath
       clipPathUnits="userSpaceOnUse"
       id="clipPath42">
      <rect
         style="fill:#000000"
         id="rect43"
         width="512"
         height="512"
         x="0"
         y="0" />
    </clipPath>
    <clipPath
       clipPathUnits="userSpaceOnUse"
       id="clipPath43">
      <rect
         style="fill:#000000"
         id="rect44"
         width="512"
         height="512"
         x="0"
         y="0" />
    </clipPath>
    <clipPath
       clipPathUnits="userSpaceOnUse"
       id="clipPath44">
      <rect
         style="fill:#000000"
         id="rect45"
         width="512"
         height="512"
         x="0"
         y="0" />
    </clipPath>
    <clipPath
       clipPathUnits="userSpaceOnUse"
       id="clipPath45">
      <rect
         style="fill:#000000"
         id="rect46"
         width="512"
         height="512"
         x="0"
         y="0" />
    </clipPath>
    <clipPath
       clipPathUnits="userSpaceOnUse"
       id="clipPath46">
      <rect
         style="fill:#000000"
         id="rect47"
         width="512"
         height="512"
         x="0"
         y="0" />
    </clipPath>
    <clipPath
       clipPathUnits="userSpaceOnUse"
       id="clipPath47">
      <rect
         style="fill:#000000"
         id="rect48"
         width="512"
         height="512"
         x="0"
         y="0" />
    </clipPath>
    <clipPath
       clipPathUnits="userSpaceOnUse"
       id="clipPath48">
      <rect
         style="fill:#000000"
         id="rect49"
         width="512"
         height="512"
         x="0"
         y="0" />
    </clipPath>
    <clipPath
       clipPathUnits="userSpaceOnUse"
       id="clipPath49">
      <rect
         style="fill:#000000"
         id="rect50"
         width="512"
         height="512"
         x="0"
         y="0" />
    </clipPath>
    <clipPath
       clipPathUnits="userSpaceOnUse"
       id="clipPath50">
      <rect
         style="fill:#000000"
         id="rect51"
         width="512"
         height="512"
         x="0"
         y="0" />
    </clipPath>
    <clipPath
       clipPathUnits="userSpaceOnUse"
       id="clipPath51">
      <rect
         style="fill:#000000"
         id="rect52"
         width="512"
         height="512"
         x="0"
         y="0" />
    </clipPath>
    <clipPath
       clipPathUnits="userSpaceOnUse"
       id="clipPath52">
      <rect
         style="fill:#000000"
         id="rect53"
         width="512"
         height="512"
         x="0"
         y="0" />
    </clipPath>
    <clipPath
       clipPathUnits="userSpaceOnUse"
       id="clipPath53">
      <rect
         style="fill:#000000"
         id="rect54"
         width="512"
         height="512"
         x="0"
         y="0" />
    </clipPath>
    <clipPath
       clipPathUnits="userSpaceOnUse"
       id="clipPath54">
      <rect
         style="fill:#000000"
         id="rect55"
         width="512"
         height="512"
         x="0"
         y="0" />
    </clipPath>
    <clipPath
       clipPathUnits="userSpaceOnUse"
       id="clipPath55">
      <rect
         style="fill:#000000"
         id="rect56"
         width="512"
         height="512"
         x="0"
         y="0" />
    </clipPath>
    <clipPath
       clipPathUnits="userSpaceOnUse"
       id="clipPath56">
      <rect
         style="fill:#000000"
         id="rect57"
         width="512"
         height="512"
         x="0"
         y="0" />
    </clipPath>
    <clipPath
       clipPathUnits="userSpaceOnUse"
       id="clipPath57">
      <rect
         style="fill:#000000"
         id="rect58"
         width="512"
         height="512"
         x="0"
         y="0" />
    </clipPath>
    <clipPath
       clipPathUnits="userSpaceOnUse"
       id="clipPath58">
      <rect
         style="fill:#000000"
         id="rect59"
         width="512"
         height="512"
         x="0"
         y="0" />
    </clipPath>
    <clipPath
       clipPathUnits="userSpaceOnUse"
       id="clipPath59">
      <rect
         style="fill:#000000"
         id="rect60"
         width="512"
         height="512"
         x="0"
         y="0" />
    </clipPath>
  </defs>
  <path
     style="fill:url(#linearGradient2);fill-opacity:1;fill-rule:evenodd;stroke:none"
     d="M 0,339.90279 512,334.48 V 512 H 0 Z"
     id="path1"
     inkscape:label="Water"
     sodipodi:nodetypes="ccccc" />
  <g
     id="g32">
    <path
       style="fill:none;stroke:none"
       d="M 0,354.8 V 0 h 512 v 334.48"
       id="path2" />
    <path
       style="fill:url(#linearGradient31);fill-opacity:1"
       d="M 0,0 H 512 V 334.48 L 0,354.8 V 0"
       id="path31"
       inkscape:label="Sky" />
  </g>
  <path
     style="fill:none;stroke:#394046;stroke-width:6.04799995;stroke-linecap:butt;stroke-linejoin:miter;stroke-miterlimit:4;stroke-dasharray:none;stroke-opacity:1"
     d="m -38.56,199.76 589.12,48.96"
     id="path3"
     clip-path="url(#clipPath59)" />
  <path
     style="fill:none;stroke:#394046;stroke-width:6.04799995;stroke-linecap:butt;stroke-linejoin:miter;stroke-miterlimit:4;stroke-dasharray:none;stroke-opacity:1"
     d="M -38.88,224.96 548,266.32"
     id="path4"
     clip-path="url(#clipPath58)" />
  <path
     style="fill:none;stroke:#394046;stroke-width:6.04799995;stroke-linecap:butt;stroke-linejoin:miter;stroke-miterlimit:4;stroke-dasharray:none;stroke-opacity:1"
     d="m 333.2,251.2 25.36,23.04 3.68,91.28 -18.64,3.44 -35.84,-1.2 1.36,-92.48 z"
     id="path5"
     clip-path="url(#clipPath57)" />
  <path
     style="fill:none;stroke:#394046;stroke-width:6.04799995;stroke-linecap:butt;stroke-linejoin:miter;stroke-miterlimit:4;stroke-dasharray:none;stroke-opacity:1"
     d="m 197.84,241.6 7.76,132.08 -29.84,4.64 -34.24,-1.76 0.32,-138.88 29.52,33.6 z"
     id="path6"
     clip-path="url(#clipPath56)" />
  <path
     style="fill:none;stroke:#394046;stroke-width:6.04799995;stroke-linecap:butt;stroke-linejoin:miter;stroke-miterlimit:4;stroke-dasharray:none;stroke-opacity:1"
     d="m 171.36,271.28 4.4,107.04"
     id="path7"
     clip-path="url(#clipPath55)" />
  <path
     style="fill:none;stroke:#394046;stroke-width:6.04799995;stroke-linecap:butt;stroke-linejoin:miter;stroke-miterlimit:4;stroke-dasharray:none;stroke-opacity:1"
     d="m 333.2,251.2 7.28,18.88 3.12,98.88"
     id="path8"
     clip-path="url(#clipPath54)" />
  <path
     style="fill:none;stroke:#394046;stroke-width:6.04799995;stroke-linecap:butt;stroke-linejoin:miter;stroke-miterlimit:4;stroke-dasharray:none;stroke-opacity:1"
     d="m 308.48,321.52 -0.88,-2.4 -3.52,-6.16 -5.36,-7.2 -6.72,-7.68 -7.6,-7.52 -8.24,-6.56 -6.24,-3.92 -4.08,-2.08 -4.08,-1.44 -3.84,-0.72 -1.84,-0.08 h -1.76 l -3.76,0.72 -3.76,1.28 -3.92,1.92 -6,3.6 -7.92,6.24 -7.44,7.12 -6.8,7.52 -5.76,7.36 -4.4,6.56 -1.52,2.8"
     id="path9"
     clip-path="url(#clipPath53)" />
  <path
     style="fill:none;stroke:#394046;stroke-width:6.04799995;stroke-linecap:butt;stroke-linejoin:miter;stroke-miterlimit:4;stroke-dasharray:none;stroke-opacity:1"
     d="m 496.32,320.72 0.08,-1.04 0.64,-2.4 2,-4.24 4.32,-6.48 5.84,-6.88 6.64,-6.64 7.12,-5.84 5.2,-3.44 3.36,-1.68 3.2,-1.2 2.88,-0.64 h 1.36 l 1.28,0.16 2.88,0.88 3.2,1.6 3.28,2.24 5.2,4.16 6.96,6.88 6.64,7.6 5.76,7.52 4.4,6.72 2.56,5.2 0.32,1.68"
     id="path10"
     clip-path="url(#clipPath52)" />
  <path
     style="fill:none;stroke:#394046;stroke-width:6.04799995;stroke-linecap:butt;stroke-linejoin:miter;stroke-miterlimit:4;stroke-dasharray:none;stroke-opacity:1"
     d="m -38.56,199.76 -0.32,25.2 6.72,39.36"
     id="path11"
     clip-path="url(#clipPath51)" />
  <path
     style="fill:none;stroke:#394046;stroke-width:6.04799995;stroke-linecap:butt;stroke-linejoin:miter;stroke-miterlimit:4;stroke-dasharray:none;stroke-opacity:1"
     d="m 140.08,318.32 -0.08,-1.84 -0.88,-3.68 -1.76,-3.76 -2.48,-3.92 -3.12,-3.84 -3.68,-3.84 -6.24,-5.6 -9.36,-6.8 -9.76,-5.76 -9.44,-4.24 -6.32,-1.84 -3.68,-0.64 H 81.68 80 l -3.84,0.8 -4.24,1.44 -4.72,2.08 -7.44,4 -10.4,6.96 -10.08,8.08 -6.72,6.4 -3.92,4.4 -3.28,4.32 -2.72,4.16 -1.84,4.08 -0.96,3.76 -0.08,1.76"
     id="path12"
     clip-path="url(#clipPath50)" />
  <path
     style="fill:none;stroke:#394046;stroke-width:6.04799995;stroke-linecap:butt;stroke-linejoin:miter;stroke-miterlimit:4;stroke-dasharray:none;stroke-opacity:1"
     d="M 18.4,382.8 V 263.6 l -33.2,-36.96 -17.36,37.68 1.76,125.12 z"
     id="path13"
     clip-path="url(#clipPath49)" />
  <path
     style="fill:none;stroke:#394046;stroke-width:6.04799995;stroke-linecap:butt;stroke-linejoin:miter;stroke-miterlimit:4;stroke-dasharray:none;stroke-opacity:1"
     d="m 361.12,327.12 v -1.44 l 0.64,-3.12 1.28,-3.44 1.84,-3.6 3.6,-5.68 6.4,-7.76 7.44,-7.28 8.08,-6.32 6,-3.68 3.92,-1.92 3.76,-1.28 3.52,-0.72 1.68,-0.08 2,0.08 4.16,0.64 4.24,1.2 4.16,1.68 6.24,3.28 7.76,5.68 6.88,6.4 5.68,6.88 3.04,5.04 1.52,3.2 0.96,3.04 0.32,2.72 -0.08,1.28"
     id="path14"
     clip-path="url(#clipPath48)" />
  <path
     style="fill:none;stroke:#394046;stroke-width:6.04799995;stroke-linecap:butt;stroke-linejoin:miter;stroke-miterlimit:4;stroke-dasharray:none;stroke-opacity:1"
     d="m 457.68,259.92 -0.08,97.92 39.6,0.48 -1.92,-66.32 z"
     id="path15"
     clip-path="url(#clipPath47)" />
  <path
     style="fill:none;stroke:#394046;stroke-width:6.04799995;stroke-linecap:butt;stroke-linejoin:miter;stroke-miterlimit:4;stroke-dasharray:none;stroke-opacity:1"
     d="M 497.44,262.72 495.28,292"
     id="path16"
     clip-path="url(#clipPath46)" />
  <path
     style="fill:none;stroke:#394046;stroke-width:6.04799995;stroke-linecap:butt;stroke-linejoin:miter;stroke-miterlimit:4;stroke-dasharray:none;stroke-opacity:1"
     d="m 550.56,248.72 -2.56,17.6 33.44,58.56"
     id="path17"
     clip-path="url(#clipPath45)" />
  <path
     style="fill:#22262a;fill-opacity:1;fill-rule:nonzero;stroke:none;stroke-width:1.2;stroke-dasharray:none"
     d="m 161.6,374.8 -7.12,-0.4 -5.52,-0.16 -4.8,-0.08 0.32,-63.68 0.24,-49.52 -0.13438,-15.77143 1.09438,1.45143 6.48,6.96 4.72,5.36 11.84,13.44 1.84,48.32 1.52,38.24 0.72,13.36 0.24,2 -0.32,1.04 -0.8,0.08 -0.64,-0.08 -3.28,-0.16 z"
     id="path18"
     clip-path="url(#clipPath44)"
     sodipodi:nodetypes="cccccccccccccccccccc" />
  <path
     style="fill:#22262a;fill-opacity:1;fill-rule:nonzero;stroke:none;stroke-width:1.2;stroke-dasharray:none"
     d="m 320.24,365.52 -10,-0.16 0.32,-2.88 0.4,-11.6 0.4,-32.8 0.4,-41.6 9.92,-10 7.76,-7.68 2.59536,-2.79998 0.84464,2.15998 2.24,5.68 2.72,7.2 1.12,37.2 0.96,31.12 0.56,16.4 0.4,10.32 -5.28,-0.16 -6.4,-0.16 z"
     id="path19"
     clip-path="url(#clipPath43)"
     sodipodi:nodetypes="ccccccccccccccccccc" />
  <path
     style="fill:#22262a;fill-opacity:1;fill-rule:nonzero;stroke:none;stroke-width:1.2;stroke-dasharray:none"
     d="m 460.32,310.56 v -44.64 l 2.32,1.92 4.88,4.08 11.28,9.6 13.76,11.84 0.48,17.2 0.48,16.48 0.4,14.48 0.28112,13.87521 L 477.36,355.2 h -17.04 z"
     id="path20"
     clip-path="url(#clipPath42)"
     sodipodi:nodetypes="ccccccccccccc" />
  <path
     style="fill:#2e3438;fill-opacity:1;fill-rule:nonzero;stroke:none;stroke-width:1.2;stroke-dasharray:none"
     d="m 178.24,369.6 -0.72,-14.4 -1.52,-36.88 -1.76,-46.08 10.32,-11.6 4.16,-4.56 5.21439,-6.64049 1.52388,-1.34688 0.86173,16.70737 5.52,91.12 0.72,15.28 -11.12,1.92 -11.92,1.68 -1.00822,0.099 -0.0198,-0.59306 L 178.4,372.08 Z"
     id="path21"
     clip-path="url(#clipPath41)"
     sodipodi:nodetypes="ccccccccccccccccc" />
  <path
     style="fill:#2e3438;fill-opacity:1;fill-rule:nonzero;stroke:none;stroke-width:1.2;stroke-dasharray:none"
     d="M 20.96,287.28 V 262.32 L 6.64,246.4 l -8,-8.96 -4.64,-5.76 -0.4,-1.04 0.16,-0.24 0.24,-0.08 17.44,1.04 102.4,7.04 21.6,1.68 3.92,0.4 -0.24,27.12 -0.16,22.24 -0.14769,10.17377 -0.12115,5.84543 -2.37116,-3.1392 -2,-2.64 -6.16,-6.24 -7.84,-6.4 -8.48,-6 -4.16,-2.48 -5.2,-2.8 -7.04,-3.04 -4.32,-1.52 -4.08,-0.96 -3.76,-0.48 h -3.6 l -3.36,0.48 -1.68,0.4 -2.8,0.88 -6.32,2.8 -6.72,3.76 -7.04,4.48 -6.96,5.04 -6.64,5.36 -6,5.6 -5.12,5.44 -2.08,2.64 -2.4,3.2 -1.04,1.36 -0.24,-1.12 -0.32,-13.28 z"
     id="path22"
     clip-path="url(#clipPath40)"
     sodipodi:nodetypes="cccccccccccccccccccccccccccccccccccccccccccc" />
  <path
     style="fill:#2e3438;fill-opacity:1;fill-rule:nonzero;stroke:none;stroke-width:1.2;stroke-dasharray:none"
     d="m -27.92,364.24 -0.48,-25.92 -0.4,-34.96 -0.48,-38.72 7.6,-16.48 7.6,-16.48 14.8,16.32 14.8,16.32 v 57.92 58 l -1.52,0.32 -5.2,0.8 -14.24,1.92 -14.32,1.92 -5.68,0.8 -2.08,0.32 z"
     id="path23"
     clip-path="url(#clipPath39)" />
  <path
     style="fill:#2e3438;fill-opacity:1;fill-rule:nonzero;stroke:none;stroke-width:1.2;stroke-dasharray:none"
     d="m 499.6,260.16 -24,-1.76 -14.50575,-1.17393 -3.25612,-0.19576 -0.55813,-1.19031 -1.2,-1.04 -0.88,-0.16 -0.24,0.56 v 0.56 0.4 l -0.24,0.74352 -1.04,-0.0235 -1.6,-0.08 -59.28,-4.32 -64.24,-4.48 -27.68,-1.84 -86.72,-6.32 -13.58973,-0.9138 -0.0103,-0.5262 -0.4,-1.04 -0.08,-0.56 v -0.88 l -0.72,0.08 -1.12,1.04 -1.84,1.76 -26.72,-1.92 -26.72,-1.92 -1.84,-2.24 -1.84,-2.24 v 2.16 2.24 l -3.2,-0.4 -18.96,-1.36 -57.28,-4 -39.2,-2.8 -27.36,-2.16 -6.88,-0.88 -0.72,-0.32 -0.64,-0.56 -0.72,-0.08 -0.16,0.48 -0.16,0.32 -1.04,0.32 h -3.68 l -5.28,-0.32 -9.84,-0.56 v -9.92 -9.92 l 2.24,0.24 35.68,2.96 117.6,9.76 354.72,29.44 72.88,6.16 -0.08,1.44 -0.72,4.48 -0.72,4.48 -0.24,1.44 -0.64,0.16 -19.28,-1.2 z"
     id="path24"
     clip-path="url(#clipPath38)"
     sodipodi:nodetypes="cccccccccccccccccccccccccccccccccccccccccccccccccccccccccccc" />
  <path
     style="fill:#2e3438;fill-opacity:1;fill-rule:nonzero;stroke:none;stroke-width:1.2;stroke-dasharray:none"
     d="m 204.56,307.12 -2.24,-34.72 -1.36,-27.76 14.32,0.96 48.88,3.44 63.04,4.4 -10.48,10.56 -10.48,10.48 -0.08,15.2 -0.08,12.32 -0.4,5.44 0.26518,3.08239 -3.78518,-4.76239 -1.92,-2.48 -5.52,-6.16 -6.48,-6.48 -6.32,-5.68 -2.64,-2 -3.68,-2.56 -7.04,-4 -6.64,-2.48 -4.4,-0.8 -2.72,-0.08 -1.28,0.16 -2.4,0.4 -5.04,1.68 -5.36,2.56 -5.52,3.52 -5.68,4.24 -5.76,5.04 -5.76,5.76 -5.68,6.4 -2.72,3.44 -3.36,4.24 -1.12,1.36 -0.24,-0.96 z"
     id="path25"
     clip-path="url(#clipPath37)"
     sodipodi:nodetypes="ccccccccccccccccccccccccccccccccccccc" />
  <path
     style="fill:#2e3438;fill-opacity:1;fill-rule:nonzero;stroke:none;stroke-width:1.2;stroke-dasharray:none"
     d="m 362.8,307.44 -0.48,-7.36 -0.4,-12.4 -0.48,-14.48 -2.08,-2 -3.44,-3.12 -6.64,-6 -3.2,-2.88 -4.0173,-3.68435 -1.1827,-1.16045 16,1.1648 83.68,6 14.08,1.2 0.24,5.36 -0.08,17.44 -0.16,22.48 -3.04,-4.24 -1.36,-1.76 -3.2,-3.6 -5.44,-5.28 -8.32,-6.32 -6.32,-3.76 -4,-1.92 -1.92,-0.72 -3.6,-1.2 -4.88,-0.88 -3.2,-0.08 -3.12,0.24 -3.12,0.72 -4.8,1.68 -3.52,1.84 -3.6,2.08 -8.08,6.08 -8,7.2 -6.64,7.36 -2.4,3.36 -2.08,2.96 -0.64,0.88 -0.24,-1.2 z"
     id="path26"
     clip-path="url(#clipPath36)"
     sodipodi:nodetypes="cccccccccccccccccccccccccccccccccccccccc" />
  <path
     style="fill:#2e3438;fill-opacity:1;fill-rule:nonzero;stroke:none;stroke-width:1.2;stroke-dasharray:none"
     d="m 346.08,362.8 -0.24,-12.08 -1.12,-35.36 -0.8,-26.4 -0.88,-16.56 -0.64,-4.56 -0.4,-1.36 -1.04,-3.12 -0.59537,-1.90168 2.19537,2.06168 5.6,4.96 3.52,3.2 3.11179,2.92062 1.12965,1.24864 -0.24144,1.19074 0.72,10.32 1.2,30.32 1.12,30.72 0.56,11.36 0.32,3.44 -5.92,1.12 -4.88,0.88 -2.1775,0.88 -0.5425,-2.24 z"
     id="path27"
     clip-path="url(#clipPath35)"
     sodipodi:nodetypes="ccccccccccccccccccccccccc" />
  <path
     style="fill:#2e3438;fill-opacity:1;fill-rule:nonzero;stroke:none;stroke-width:1.2;stroke-dasharray:none"
     d="m 498.24,299.44 v -5.68 l 0.48,-11.28 0.72,-9.6 0.41828,-6.09798 0.17281,-1.31535 7.00891,0.77333 33.44,2.32 5.84,0.72 5.28,8.8 4.72,8.64 -0.8,-0.4 -2.72,-2.16 -1.76,-1.36 -3.92,-2.4 -3.84,-1.76 -3.36,-1.04 -1.28,-0.08 -1.68,0.08 -3.84,1.04 -4.4,2 -4.72,2.8 -4.96,3.6 -4.96,4.08 -4.8,4.56 -4.48,4.96 -2.08,2.56 -2.72,3.52 -1.2,1.52 -0.24,-0.32 -0.32,-4.72 z"
     id="path28"
     clip-path="url(#clipPath34)"
     sodipodi:nodetypes="cccccccccccccccccccccccccccccccc" />
  <path
     style="fill:#40494e;fill-opacity:1;fill-rule:nonzero;stroke:none;stroke-width:1.2;stroke-dasharray:none"
     d="m 159.92,254.08 -8.64,-9.84 -2.32,-3.04 5.04,0.16 16.56,1.12 21.36,1.44 -1.84,2.24 -4.32,5.04 -12.16,13.52 -2.19707,2.2737 L 168.72,263.84 Z"
     id="path29"
     clip-path="url(#clipPath33)"
     sodipodi:nodetypes="cccccccccccc" />
  <path
     style="fill:#40494e;fill-opacity:1;fill-rule:nonzero;stroke:none;stroke-width:1.2;stroke-dasharray:none"
     d="m 479.44,274.88 -10,-8.64 -3.5691,-2.96 3.1691,0.24 15.6,0.96 6,0.56 3.68,0.4 -0.48,8.24 -0.48,6.88 -0.48,3.44 -0.10438,2.3057 z"
     id="path30"
     clip-path="url(#clipPath32)"
     sodipodi:nodetypes="cccccccccccc" />
</svg>
